# xmcd CD database file
#
# Track frame offsets:
#	150
#	10317
#	19909
#	31706
#	39806
#	57034
#	70895
#	80792
#	93678
#	104325
#	115217
#	121988
#	131099
#	141817
#	147521
#	158525
#	169174
#	180594
#	189992
#	198907
#	208920
#	221815
#	231540
#	246317
#
# Disc length: 3404 seconds
#
# Revision: 0
# Processed by: cddbd v1.5.1PL2 Copyright (c) Steve Scherf et al.
# Submitted via: Feurio! 1.67 - http://www.feurio.com
#
DISCID=5e0d4a18
DTITLE=Frantisek Nedved and Honza Nedved - 44 Slavnych pisnicek [CD1)
DYEAR=2005
DGENRE=Country
TTITLE0=Stanky
TTITLE1=Valcicek
TTITLE2=Na kameni kamen
TTITLE3=Obrazek oblazek
TTITLE4=Podvod
TTITLE5=Hopsinky
TTITLE6=Ptacata
TTITLE7=Pletenka
TTITLE8=Ruze z papiru
TTITLE9=Hrasek
TTITLE10=Kaminky
TTITLE11=Nova
TTITLE12=Zahradky
TTITLE13=Jaro
TTITLE14=Krouzek
TTITLE15=Cos mi chtel
TTITLE16=Nad Sazavou
TTITLE17=Hrad
TTITLE18=Carky
TTITLE19=Igelit
TTITLE20=Perina
TTITLE21=Jizni kriz
TTITLE22=Kohout
TTITLE23=Dobrej den
EXTD=
EXTT0=
EXTT1=
EXTT2=
EXTT3=
EXTT4=
EXTT5=
EXTT6=
EXTT7=
EXTT8=
EXTT9=
EXTT10=
EXTT11=
EXTT12=
EXTT13=
EXTT14=
EXTT15=
EXTT16=
EXTT17=
EXTT18=
EXTT19=
EXTT20=
EXTT21=
EXTT22=
EXTT23=
PLAYORDER=
